<svg width="411" height="72" viewBox="0 0 411 72" fill="none" xmlns="http://www.w3.org/2000/svg">
<path d="M13.8469 51L4.92692 23H9.52692L14.9269 40.52C15.0869 40.9467 15.2336 41.4533 15.3669 42.04C15.5003 42.6 15.6203 43.1733 15.7269 43.76C15.8336 44.3467 15.9269 44.8933 16.0069 45.4C16.1136 45.9067 16.2069 46.32 16.2869 46.64L15.1269 46.6C15.5269 45.1867 15.8336 44.0933 16.0469 43.32C16.2869 42.5467 16.4736 41.96 16.6069 41.56C16.7403 41.1333 16.8603 40.7733 16.9669 40.48L22.0069 27.84H25.8869L30.7669 40.48C31.0336 41.12 31.2603 41.76 31.4469 42.4C31.6603 43.0133 31.8469 43.64 32.0069 44.28C32.1669 44.8933 32.3403 45.5467 32.5269 46.24L31.4869 46.52C31.6203 45.8 31.7136 45.24 31.7669 44.84C31.8469 44.4133 31.9136 44.0667 31.9669 43.8C32.0203 43.5333 32.0736 43.28 32.1269 43.04C32.1803 42.7733 32.2603 42.44 32.3669 42.04C32.5003 41.64 32.6736 41.0933 32.8869 40.4L38.2069 23H42.8469L33.9269 51H30.9269L23.5269 33.48L23.8869 33.64L16.7669 51H13.8469ZM47.7307 51V23H65.3707V27.16H52.0507V46.84H65.3707V51H47.7307ZM49.6907 38.72V34.56H63.1707V38.72H49.6907ZM69.381 51L80.221 23H84.621L95.381 51H90.781L84.381 34.12C84.301 33.9333 84.141 33.48 83.901 32.76C83.6876 32.04 83.4343 31.24 83.141 30.36C82.8476 29.48 82.581 28.68 82.341 27.96C82.101 27.2133 81.941 26.7333 81.861 26.52L82.781 26.48C82.621 26.9333 82.421 27.5067 82.181 28.2C81.9676 28.8933 81.7276 29.6267 81.461 30.4C81.221 31.1733 80.981 31.9067 80.741 32.6C80.501 33.2667 80.301 33.8267 80.141 34.28L73.781 51H69.381ZM74.181 44.04L75.781 39.88H88.501L90.341 44.04H74.181ZM103.637 51V27.16H95.7966V23H116.037V27.16H107.957V51H103.637ZM139.643 51V23H143.963V51H139.643ZM121.363 51V23H125.683V51H121.363ZM123.243 39.12V34.96H141.563V39.12H123.243ZM151.793 51V23H169.433V27.16H156.113V46.84H169.433V51H151.793ZM153.753 38.72V34.56H167.233V38.72H153.753ZM176.363 51V23H188.283C189.883 23 191.35 23.4 192.683 24.2C194.043 24.9733 195.123 26.04 195.923 27.4C196.723 28.7333 197.123 30.24 197.123 31.92C197.123 33.44 196.723 34.8533 195.923 36.16C195.123 37.4667 194.057 38.52 192.723 39.32C191.39 40.0933 189.91 40.48 188.283 40.48H180.683V51H176.363ZM193.003 51L185.883 38.36L190.323 37.36L198.243 51.04L193.003 51ZM180.683 36.32H188.683C189.457 36.32 190.15 36.1333 190.763 35.76C191.377 35.36 191.857 34.8267 192.203 34.16C192.55 33.4667 192.723 32.7067 192.723 31.88C192.723 30.9467 192.497 30.1333 192.043 29.44C191.617 28.72 191.003 28.16 190.203 27.76C189.43 27.36 188.55 27.16 187.563 27.16H180.683V36.32ZM203.136 51V47H207.656V27H203.136V23H216.496V27H211.976V47H216.496V51H203.136ZM223.278 51V23H227.158L244.278 45.92L243.638 46.28C243.531 45.6133 243.438 44.8933 243.358 44.12C243.278 43.32 243.198 42.48 243.118 41.6C243.064 40.6933 243.011 39.7467 242.958 38.76C242.931 37.7467 242.904 36.6933 242.878 35.6C242.851 34.5067 242.838 33.3733 242.838 32.2V23H247.158V51H243.198L226.358 28.92L226.798 28.36C226.931 29.9867 227.038 31.3733 227.118 32.52C227.224 33.64 227.304 34.6 227.358 35.4C227.438 36.1733 227.491 36.8133 227.518 37.32C227.544 37.8 227.558 38.2 227.558 38.52C227.584 38.84 227.598 39.12 227.598 39.36V51H223.278ZM254.996 51V23H272.636V27.16H259.316V46.84H272.636V51H254.996ZM256.956 38.72V34.56H270.436V38.72H256.956Z" fill="white"/>
<path d="M350.443 24.472L322.151 5.32786L329.421 1.63804L369.336 16.8305L369.84 17.0222L370.351 16.8493L393.014 9.17652C394.684 8.61234 396.506 8.74416 398.082 9.54463C398.319 9.66522 398.631 9.81919 399 10.0015C400.212 10.5998 402.041 11.503 403.884 12.5319C405.08 13.2 406.247 13.9021 407.216 14.5815C408.096 15.199 408.714 15.7312 409.059 16.1413C409.34 17.017 409.478 17.583 409.498 18.094C409.517 18.5904 409.425 19.1231 409.059 19.908C409.056 19.9085 408.99 20.0013 408.768 20.1794C408.512 20.3856 408.149 20.6263 407.688 20.8923C406.769 21.4227 405.592 21.9785 404.403 22.4913C403.222 23.0009 402.064 23.4533 401.198 23.7791C400.766 23.9417 400.409 24.072 400.161 24.1614C400.037 24.2061 399.94 24.2405 399.875 24.2636L399.802 24.2895L399.791 24.2934L399.784 24.2958L399.779 24.2972L399.779 24.2975L324.677 49.7066L306.106 30.8571L309.366 27.5481L328.656 37.3376L329.335 37.6821L330.013 37.3376L350.281 27.0519L352.552 25.8993L350.443 24.472ZM310.567 70.5V63.2143L408.905 63.2143V70.5L310.567 70.5Z" stroke="#EFEFEF" stroke-width="3"/>
</svg>
